<mxfile host="app.diagrams.net" modified="2023-07-12T01:45:21.716Z" agent="Mozilla/5.0 (Windows NT 10.0; Win64; x64) AppleWebKit/537.36 (KHTML, like Gecko) Chrome/105.0.0.0 Safari/537.36" version="21.6.2" etag="v3IUCNqruay9GmOV2aVu" type="github">
  <diagram name="第 1 页" id="RJQxm5ndq4cCIDWUawDe">
    <mxGraphModel>
      <root>
        <mxCell id="0" />
        <mxCell id="1" parent="0" />
      </root>
    </mxGraphModel>
  </diagram>
</mxfile>
